<svg width="72" height="72" viewBox="0 0 72 72" fill="none" xmlns="http://www.w3.org/2000/svg">
<path d="M8 0.5H64C68.1301 0.5 71.5 3.86989 71.5 8V64C71.5 68.1301 68.1301 71.5 64 71.5H8C3.86989 71.5 0.5 68.1301 0.5 64V8C0.5 3.86989 3.86989 0.5 8 0.5ZM26.2734 19.4746L15.5234 53.4746L15.3174 54.125H23.625L23.7305 53.7646L25.626 47.25H33.999L35.8945 53.7646L36 54.125H44.6826L44.4766 53.4746L33.7266 19.4746L33.6162 19.125H26.3838L26.2734 19.4746ZM46.25 54.125H54.125V27.875H46.25V54.125ZM32.5967 40.25H27.4033L30 30.6621L32.5967 40.25ZM50 17.5C47.7239 17.5 45.875 19.3489 45.875 21.625C45.875 23.9011 47.7239 25.75 50 25.75C52.2761 25.75 54.125 23.9011 54.125 21.625C54.125 19.3489 52.2761 17.5 50 17.5Z" stroke="#223B3E"/>
</svg>
