<svg width="20" height="20" viewBox="0 0 20 20" fill="none" xmlns="http://www.w3.org/2000/svg">
<path d="M5.55566 0.25H14.4443C17.374 0.25 19.75 2.62596 19.75 5.55566V14.4443C19.75 17.374 17.374 19.75 14.4443 19.75H5.55566C2.62596 19.75 0.25 17.374 0.25 14.4443V5.55566C0.25 2.62596 2.62596 0.25 5.55566 0.25ZM10 4.19434C6.79415 4.19434 4.19434 6.79415 4.19434 10C4.19434 13.2058 6.79415 15.8057 10 15.8057C13.2058 15.8057 15.8057 13.2058 15.8057 10C15.8057 6.79415 13.2058 4.19434 10 4.19434ZM10 6.91699C10.8178 6.91699 11.6024 7.2411 12.1807 7.81934C12.7589 8.39757 13.083 9.18225 13.083 10C13.083 10.8178 12.7589 11.6024 12.1807 12.1807C11.6024 12.7589 10.8178 13.083 10 13.083C9.18225 13.083 8.39757 12.7589 7.81934 12.1807C7.2411 11.6024 6.91699 10.8178 6.91699 10C6.91699 9.18225 7.2411 8.39757 7.81934 7.81934C8.39757 7.2411 9.18225 6.91699 10 6.91699ZM16.667 1.97266C15.9157 1.97266 15.3058 2.58175 15.3057 3.33301C15.3057 4.08441 15.9156 4.69434 16.667 4.69434C17.4182 4.69416 18.0273 4.0843 18.0273 3.33301C18.0272 2.58186 17.4181 1.97283 16.667 1.97266Z" stroke="#223B3E" stroke-width="0.5"/>
</svg>
